# xmcd
#
# Track frame offsets: 
#        150
#        16446
#        29072
#        48474
#        66537
#        85958
#        105209
#        129127
#        156372
#        187179
#        208115
#        227714
#        246940
#        277983
#        299732
#        323407
#
# Disc length: 4510 seconds
#
# Revision: 0
# Processed by: cddbd v1.5.2PL0 Copyright (c) Steve Scherf et al.
# Submitted via: ExactAudioCopy v0.99pb5
#
DISCID=ec119c10
DTITLE=Popa Chubby - The Essential Popa Chubby
DYEAR=2010
DGENRE=Blues
TTITLE0=Daddy Played The Guitar And Mama Was A Disco Queen
TTITLE1=How'd A White Boy Get The Blues
TTITLE2=Somebody Let The Devil Out
TTITLE3=If The Diesel Don't Get You Then The Jet Fuel Will
TTITLE4=Like The Buddha Do
TTITLE5=Life Is A Beatdown
TTITLE6=Sweet Goddess Of Love And Beer
TTITLE7=Hey Joe
TTITLE8=Hallelujah
TTITLE9=Back In My Baby's Arms
TTITLE10=Slide Devil Man Slide
TTITLE11=Deliveries After Dark
TTITLE12=Grown Man Crying Blues
TTITLE13=The Fight Is On
TTITLE14=Another Ten Years Gone
TTITLE15=Keep On The Sunnyside Of Life
EXTD=
EXTT0=
EXTT1=
EXTT2=
EXTT3=
EXTT4=
EXTT5=
EXTT6=
EXTT7=
EXTT8=
EXTT9=
EXTT10=
EXTT11=
EXTT12=
EXTT13=
EXTT14=
EXTT15=
PLAYORDER=
